<svg xmlns="http://www.w3.org/2000/svg" viewBox="0 0 250 250"><defs><style>.cls-1,.cls-2{fill:#67d5dc;}.cls-2{stroke:#67d5dc;stroke-miterlimit:10;}</style></defs><title>zodiac-signs</title><g id="Calque_9" data-name="Calque 9"><path class="cls-1" d="M114,127.68q.16-20,.21-40c0-6.26.27-12.6-.15-18.85-.7-10.61-13-15.29-22.1-15.62v9h51.26c5.79,0,5.8-9,0-9H91.93c-5.81,0-5.78,8.79,0,9,4,.14,11.79,2.16,13.06,5.85.48,1.41.12,3.62.14,5.08.09,6.85.06,13.71,0,20.56q0,17-.2,34c0,5.79,9,5.8,9,0Z"/><path class="cls-1" d="M142.2,127.68q.18-20,.22-40c0-6.26.26-12.6-.15-18.85-.71-10.61-13-15.29-22.11-15.62v9h51.27c5.79,0,5.8-9,0-9H120.16c-5.81,0-5.78,8.79,0,9,4,.14,11.79,2.16,13.06,5.85.48,1.41.13,3.62.14,5.08.09,6.85.07,13.71,0,20.56q-.06,17-.21,34c0,5.79,9,5.8,9,0Z"/><path class="cls-1" d="M200.66,53.2H149.4c-5.81,0-5.78,8.79,0,9,4,.14,11.5,1.84,13,6,.37,1,.14,3.71.16,5.13.09,7,0,14,0,21-.05,10.34-.18,20.67-.18,31,0,2.24,2.07,4.76,4.5,4.5,10.9-1.17,22.33-7.17,22.84-19.33.24-5.79-8.76-5.78-9,0-.19,4.48-3.59,7.06-7.48,8.62a33.11,33.11,0,0,1-5,1.44c-.85.2-2.4.38-1.37.27l4.5,4.5c0-12.42.17-24.83.21-37.25,0-6.43.36-13-.15-19.44-.84-10.51-13-15.13-22.1-15.45v9h51.26c5.79,0,5.8-9,0-9Z"/><path class="cls-2" d="M195.58,109.1H176.36a1.08,1.08,0,0,1-.83-1.76l9.15-11a1.07,1.07,0,0,1,1.62,0l10.07,11.06A1.07,1.07,0,0,1,195.58,109.1Z"/></g></svg>