<svg id="Calque_1" data-name="Calque 1" xmlns="http://www.w3.org/2000/svg" viewBox="0 0 250 250"><defs><style>.cls-1{fill:#67d5dc;}</style></defs><title>zodiac-signs</title><path class="cls-1" d="M46.89,104.1c-6.88,2.08-13.18,7.35-15.65,14.17A18.77,18.77,0,0,0,44.59,143c6.28,1.51,14.19-1.2,18.65-5.67,6.75-6.75,4.62-18.45,4.62-27.13V81.16c0-.73.3-2.16,0-2.84.1.22-1.66,2.49.11.57,3.47-3.76,6.51-6.66,12.17-6.07a15.82,15.82,0,0,1,7.63,3A17.93,17.93,0,0,1,90,77.73a6.34,6.34,0,0,0,.71.75c.81.56.15.48.3.32-.39.41-.07-3.26-.46-1.27a18.57,18.57,0,0,0,0,3.25v24.44c0,6.4-.69,13.23,0,19.6,1,9,9.32,16.55,18.08,17,5.79.28,5.78-8.72,0-9-4.38-.22-6.73-3.61-8.54-7.21a12.8,12.8,0,0,1-.68-1.88c.41,1.3.07,1.18.14.06.42-6.28,0-12.74,0-19V82c0-4.65.08-7.43-3.47-10.92C88.79,63.91,77,61.25,67.94,66.68c-4.61,2.76-9,7.31-9.08,12.86-.14,8,0,16.12,0,24.17v14.77c0,3.4.84,8.23-1,11.25-3.62,6-12.42,6.07-16.73,1.2-6.25-7.08,1.61-16.18,8.12-18.15,5.53-1.68,3.17-10.37-2.39-8.68Z"/></svg>