<svg xmlns="http://www.w3.org/2000/svg" viewBox="0 0 250 250"><defs><style>.cls-1{fill:#67d5dc;}</style></defs><title>zodiac-signs</title><g id="Calque_5" data-name="Calque 5"><path class="cls-1" d="M71.84,117.16V70.42c0-2.84-.07-5.68,0-8.52,0-.7.31-1.61-.1-.43a13.43,13.43,0,0,1,3.4-4.54c5.18-4.56,12.77-3.82,17.92.45.83.69,2.87,3,2.85,3-.67-1.3-.12.15-.11,1.33.06,16.29-.66,32.8.21,49.07.31,5.77,3.95,11.11,10,11.52,4,.27,8.14.12,12.13,0,5.57-.17,10.28-3.19,10.71-9.14a66,66,0,0,0,0-10c-1-12.75-14.49-12.45-24.07-10.68-13.16,2.43-20.47,12.25-22,25.14-.69,5.74,8.31,5.69,9,0,1.23-10.17,7.89-15.84,17.81-16.77,2.12-.2,7.41-1.11,9.23.27,2,1.53,1.39,8.3,1.11,10.43-.21,1.63-.15,1.55-1.71,1.79a38.45,38.45,0,0,1-5.78,0c-1.56,0-4.34.55-5.78,0s-1.46-1.68-1.61-3.16c-.76-7.19-.06-14.85-.1-22.07q0-12.68-.11-25.36c0-1.91.15-3.78-.57-5.59-1.58-4-5.79-7.44-9.47-9.42C84.35,42.13,71.61,45,65.11,54.93c-2.88,4.41-2.27,9-2.27,14v48.25c0,5.79,9,5.8,9,0Z"/></g></svg>