<svg xmlns="http://www.w3.org/2000/svg" viewBox="0 0 250 250"><defs><style>.cls-1{fill:#67d5dc;}</style></defs><title>zodiac-signs</title><g id="Calque_10" data-name="Calque 10"><path class="cls-1" d="M87.72,57c8.59,8.3,16.59,18.68,16.9,31.14.34,13.73-8.28,25.49-17.35,35-4,4.18,2.35,10.56,6.37,6.37,10.71-11.17,20.38-25.18,20-41.32-.37-14.91-9.17-27.49-19.53-37.5-4.17-4-10.54,2.32-6.37,6.36Z"/><path class="cls-1" d="M149.13,50.64c-10.36,10-19.16,22.59-19.53,37.5-.41,16.14,9.27,30.15,20,41.32,4,4.18,10.37-2.19,6.36-6.37-9.07-9.46-17.69-21.22-17.34-34.95.31-12.46,8.3-22.84,16.89-31.14,4.17-4-2.19-10.39-6.36-6.36Z"/><path class="cls-1" d="M154.34,85.17H88.9c-5.79,0-5.8,9,0,9h65.44c5.79,0,5.8-9,0-9Z"/></g></svg>