<svg xmlns="http://www.w3.org/2000/svg" viewBox="0 0 250 250"><defs><style>.cls-1{fill:#67d5dc;}</style></defs><title>zodiac-signs</title><g id="Calque_7" data-name="Calque 7"><path class="cls-1" d="M84.79,97c-5.25-.15-9.42-2.32-11.38-7.35a15.17,15.17,0,0,1-1.07-6.38C73.74,71.77,87.42,69.83,95.19,77a34.58,34.58,0,0,1,2.92,3.65c1.58,1.89.2-1.73-.09-.55-.61,2.4,0,5.77,0,8.23v50.07l4.5-4.5h-.27l4.5,4.5V91.57c0-3.35.15-6.74,0-10.09a8.14,8.14,0,0,0,0-1.21c-.22-1,.64-.69-.3.32-1.67,1.79-.17.62,0,.44a17,17,0,0,0,1.23-2c6.11-8.12,20.77-9.21,24.16,1.73A12.52,12.52,0,0,1,120,97c-5.78.16-5.8,9.16,0,9,12.14-.35,21.4-9.24,21.49-21.6a20.4,20.4,0,0,0-20.39-20.66c-8.91-.05-22.91,6.15-23.32,16.64-.39,9.79,0,19.68,0,29.48v28.54a4.56,4.56,0,0,0,4.5,4.5h.27a4.57,4.57,0,0,0,4.5-4.5V82.38c0-9-8.08-15.73-16.47-17.78-13.24-3.25-26,4.27-27.15,18.27-1.08,12.86,8.85,22.8,21.39,23.16,5.8.16,5.79-8.84,0-9Z"/></g></svg>