<svg xmlns="http://www.w3.org/2000/svg" viewBox="0 0 250 250"><defs><style>.cls-1{fill:#67d5dc;}</style></defs><title>zodiac-signs</title><g id="Calque_6" data-name="Calque 6"><path class="cls-1" d="M66.15,141.54h83.49c5.79,0,5.8-9,0-9H66.15c-5.79,0-5.8,9,0,9Z"/><path class="cls-1" d="M65.23,122H82.56a4.57,4.57,0,0,0,4.5-4.5c0-16.72-2.06-45.63,21.36-46.27,5.78-.15,5.81-9,0-9h-.54c-5.8,0-5.79,8.85,0,9,23.42.64,21.4,29.56,21.37,46.27a4.56,4.56,0,0,0,4.5,4.5h17.33c5.79,0,5.8-9,0-9H133.75l4.5,4.5c0-11.41.57-23.25-3-34.26-4.13-12.82-13.79-20.64-27.39-21v9h.54v-9c-13.59.37-23.26,8.19-27.39,21-3.54,11-3,22.85-3,34.26l4.5-4.5H65.23c-5.79,0-5.8,9,0,9Z"/></g></svg>