<svg xmlns="http://www.w3.org/2000/svg" viewBox="0 0 250 250"><defs><style>.cls-1{fill:#67d5dc;}</style></defs><title>zodiac-signs</title><g id="Calque_8" data-name="Calque 8"><path class="cls-1" d="M134.59,114.59c-.31,10.43-8.48,19.14-19.14,19.14a19.14,19.14,0,0,1,0-38.27c10.66,0,18.83,8.7,19.14,19.13.16,5.78,9.16,5.81,9,0-.34-11.72-7.24-22.18-18.36-26.35a28.32,28.32,0,0,0-31.4,8.39c-16.51,20,1.56,50.29,26.92,45.58,13.36-2.48,22.45-14.32,22.84-27.62C143.75,108.8,134.75,108.8,134.59,114.59Z"/><path class="cls-1" d="M134.59,67c-.31,10.45-8.48,19.1-19.14,19.13S96.62,77.35,96.32,67c-.17-5.78-9.17-5.8-9,0,.44,15.29,12.5,28.13,28.13,28.13S143.14,82.24,143.59,67c.16-5.8-8.84-5.79-9,0Z"/></g></svg>