<svg xmlns="http://www.w3.org/2000/svg" viewBox="0 0 250 250"><defs><style>.cls-1{fill:#67d5dc;}</style></defs><title>zodiac-signs</title><g id="Calque_3" data-name="Calque 3"><path class="cls-1" d="M57,157.68c.12-11.67.22-23.35.21-35,0-4.85.38-10-.21-14.78-1.24-10-13.34-14.37-22-14.68v9H86.19c5.79,0,5.8-9,0-9H34.93c-5.81,0-5.78,8.79,0,9,4.23.15,10.48,1.49,12.77,5.6a10.26,10.26,0,0,1,.41,3.65c.12,5.73.08,11.47.06,17.21q0,14.51-.2,29c-.06,5.79,8.94,5.8,9,0Z"/><path class="cls-1" d="M81.08,157.68q.19-17.51.22-35c0-4.85.38-10-.22-14.78-1.24-10-13.33-14.37-22-14.68-5.79-.21-5.78,8.79,0,9,4.23.15,10.48,1.49,12.78,5.6a10.26,10.26,0,0,1,.41,3.65c.12,5.73.08,11.47.06,17.21q0,14.51-.21,29c-.06,5.79,8.94,5.8,9,0Z"/><path class="cls-1" d="M105.2,157.68c.12-11.67.21-23.35.21-35,0-4.85.39-10-.21-14.78-1.24-10-13.34-14.39-22-14.68-5.8-.2-5.79,8.8,0,9,4.22.14,10.46,1.49,12.76,5.58a10,10,0,0,1,.42,3.67c.12,5.73.08,11.47.06,17.21q0,14.51-.2,29c-.06,5.79,8.94,5.8,9,0Z"/><path class="cls-1" d="M95.83,170.22c6.57-7.37,13.18-15,18.55-23.32,2.76-4.27,4.91-8.6,2.35-13.55-2.72-5.27-8.25-9.14-13.13-12.25s-9.42,4.66-4.55,7.77c3,1.91,8.82,5.17,9.82,8.81.12.46-.31,1.44-1.17,2.91a65,65,0,0,1-3.77,5.63c-4.47,6.14-9.41,12-14.46,17.64-3.84,4.31,2.5,10.7,6.36,6.36Z"/></g></svg>