<svg xmlns="http://www.w3.org/2000/svg" viewBox="0 0 250 250"><defs><style>.cls-1{fill:#67d5dc;}</style></defs><title>zodiac-signs</title><g id="Calque_12" data-name="Calque 12"><path class="cls-1" d="M63.46,77.55C73.71,66.65,90.79,65,102.23,75.19A27.75,27.75,0,0,1,104.59,114c-3.76,4.37,2.58,10.76,6.37,6.37,12.91-15,12.67-37.92-2.36-51.51S70.74,56.68,57.09,71.18c-4,4.22,2.39,10.6,6.37,6.37Z"/><path class="cls-1" d="M70.19,113.31l61.28-56.59,8.85-8.18c4.26-3.93-2.11-10.29-6.36-6.36L72.68,98.77,63.83,107c-4.27,3.93,2.11,10.29,6.36,6.36Z"/><path class="cls-1" d="M142.25,55.81V45.17c0-5.79-9-5.8-9,0V55.81c0,5.79,9,5.8,9,0Z"/><path class="cls-1" d="M126.11,48.65l10.8,1c2.42.23,4.5-2.23,4.5-4.5,0-2.63-2.07-4.27-4.5-4.5l-10.8-1c-2.43-.23-4.5,2.23-4.5,4.5,0,2.62,2.07,4.27,4.5,4.5Z"/></g></svg>