<svg xmlns="http://www.w3.org/2000/svg" viewBox="0 0 250 250"><defs><style>.cls-1{fill:#67d5dc;}</style></defs><title>zodiac-signs</title><g id="Calque_13" data-name="Calque 13"><path class="cls-1" d="M103.64,56.53c-.3,10.79-8.75,19.71-19.74,19.74s-19.44-9-19.74-19.74c-.16-5.78-9.16-5.8-9,0C55.6,72.15,67.94,85.27,83.9,85.27s28.3-13.12,28.74-28.74c.16-5.79-8.84-5.79-9,0Z"/><path class="cls-1" d="M152.52,56.53c-.31,10.79-8.75,19.71-19.74,19.74s-19.44-9-19.74-19.74c-.16-5.78-9.16-5.8-9,0,.44,15.62,12.78,28.74,28.74,28.74s28.3-13.12,28.74-28.74c.16-5.79-8.84-5.79-9,0Z"/><path class="cls-1" d="M103.64,105.8A20,20,0,0,1,83.9,125.54c-11,0-19.44-9-19.74-19.74-.16-5.78-9.16-5.8-9,0,.44,15.62,12.78,28.74,28.74,28.74s28.3-13.12,28.74-28.74c.16-5.79-8.84-5.79-9,0Z"/><path class="cls-1" d="M152.52,105.8c-.31,10.78-8.75,19.71-19.74,19.74s-19.44-9-19.74-19.74c-.16-5.78-9.16-5.8-9,0,.44,15.62,12.78,28.74,28.74,28.74s28.3-13.12,28.74-28.74c.16-5.79-8.84-5.79-9,0Z"/></g></svg>