<svg xmlns="http://www.w3.org/2000/svg" viewBox="0 0 250 250"><defs><style>.cls-1{fill:#67d5dc;}</style></defs><title>zodiac-signs</title><g id="Calque_4" data-name="Calque 4"><path class="cls-1" d="M123.42,130.79H57.49a20.91,20.91,0,0,1-2.24,0c1.16.13-1.44-.45-2-.7a14.22,14.22,0,0,1-8.12-9.81C43,112,46.41,105.59,54.82,104c7.88-1.51,19.09,1.67,19.52,11.07.27,5.77,9.27,5.8,9,0C82.49,96.65,59.8,90,45.25,97.86,32,105,33,125.17,43.43,134.34c6.13,5.4,12.36,5.45,20,5.45h60c5.79,0,5.8-9,0-9Z"/><path class="cls-1" d="M36.15,70.45h65.94a20.92,20.92,0,0,1,2.24,0c-1.16-.12,1.44.46,2,.71A14.23,14.23,0,0,1,114.48,81c2.1,8.26-1.31,14.68-9.73,16.3-7.87,1.52-19.08-1.66-19.52-11.07-.26-5.76-9.27-5.8-9,0,.86,18.38,23.55,25,38.1,17.18,13.22-7.13,12.22-27.31,1.81-36.49-6.12-5.4-12.35-5.45-20-5.45h-60c-5.79,0-5.8,9,0,9Z"/></g></svg>